<svg xmlns="http://www.w3.org/2000/svg" xmlns:xlink="http://www.w3.org/1999/xlink" version="1.1" x="0px" y="0px" viewBox="0 0 100 125" enable-background="new 0 0 100 100" xml:space="preserve"><g><g><path d="M81.703,42.324h-2.739c-0.798,0-1.565,0.119-2.289,0.347c-1.263-3.318-4.774-5.843-8.668-5.843h-2.739    c-0.135,0-0.268,0.005-0.398,0.014c-1.319-3.164-4.46-5.51-7.922-5.51h-2.738c-1.057,0-2.092,0.207-3.063,0.579v-2.44    c-2.278-0.907-4.365-1.939-6-2.82v21.474c0,1.657,1.26,3,2.917,3s3-1.343,3-3c0,0,0.083-7.808,0.083-8.041    c0-1.26,1.66-2.752,3.063-2.752h2.738c0.959,0,1.9,0.741,2.333,1.684v9.109c0,1.657,1.125,3,2.782,3s3-1.343,3-3v-5.233    c0.081-0.033,2.944-0.064,2.944-0.064c1.479,0,3.056,1.33,3.056,2.496v8.801c0,1.657,1.343,3,3,3s3-1.343,3-3v-3.997    c0.241-0.714,0.79-1.804,1.901-1.804c0,0,1.399-0.093,2.738,0s2.48,2.55,2.48,4.558v19.68c0,6.705-7.186,19.229-24.498,19.229    c-17.251,0-29.206-18.384-29.323-18.565c-0.044-0.07-0.092-0.138-0.142-0.204c-7.151-9.426-15.324-24.495-12.068-28.271    c0.713-0.828,1.336-0.939,1.851-0.939c2.353,0,6.235,2.771,10.132,7.233c0.822,0.941,2.144,1.273,3.313,0.835    c1.171-0.439,1.946-1.558,1.946-2.809V26.277c-1.565,0.868-3.663,1.944-6,2.916v12.755c-2.9-2.345-6.17-4.138-9.391-4.138    c-2.48,0-4.692,1.045-6.396,3.021c-7.713,8.946,8.275,31.111,11.763,35.723c1.197,1.841,14.29,21.235,34.314,21.235    c11.765,0,19.04-4.874,23.072-8.963c4.58-4.646,7.426-10.878,7.426-16.266v-19.68C90.183,48.679,86.801,42.324,81.703,42.324z"/><path d="M29.394,25.132c1.4-0.583,2.715-1.202,3.881-1.792c0.72-0.365,1.384-0.718,1.975-1.043    c0.047,0.024,0.096,0.045,0.144,0.069c0.625,0.301,2.953,0.975,4.533,0.975s4.019-0.709,4.678-1.043    c0.174,0.096,1.467,0.786,1.975,1.043c1.354,0.686,2.909,1.411,4.565,2.07c3.204,1.276,6.782,2.304,10.013,2.304    c9.545,0,12.125-4.481,12.468-8.644c0.028-0.348,0.047-0.695,0.047-1.036c0-3.757-1.626-10.061-12.515-10.061    c-3.318,0-6.997,1.137-10.265,2.53c-0.962-4.921-4.648-8.713-8.912-8.713h-3.424c-4.096,0-7.993,4.127-8.941,8.998    c-3.424-1.52-7.378-2.814-10.919-2.814c-10.888,0-12.514,6.304-12.514,10.061c0,0.341,0.019,0.688,0.047,1.036    c0.342,4.162,2.922,8.644,12.467,8.644C22.159,27.714,26.022,26.534,29.394,25.132z M12.244,19.05    c-0.058-0.347-0.062-0.694-0.062-1.016c0-1.519,0-4.061,6.514-4.061c3.192,0,7.306,1.634,10.697,3.35    c0.241,0.122,1.059,0.547,1.227,0.637c-0.168,0.085-1.802,0.867-2.094,1c-3.21,1.461-6.899,2.754-9.831,2.754    C13.533,21.714,12.466,20.377,12.244,19.05z M67.611,19.05c-0.222,1.328-1.289,2.664-6.453,2.664c-2.931,0-6.62-1.292-9.83-2.754    c-0.062-0.027-1.489-0.693-2.094-1c0.605-0.325,1.251-0.651,1.912-0.973c3.25-1.585,7.031-3.014,10.013-3.014    c6.515,0,6.515,2.542,6.515,4.061C67.673,18.356,67.669,18.703,67.611,19.05z M35.394,13.02c0-2.911,2.272-5.229,3.164-5.229    h3.424c1.074,0,3.164,1.846,3.164,5.229v0.348c-0.6,0.34-1.137,0.658-1.604,0.943c-1.073-0.375-2.304-0.589-3.614-0.589    s-2.54,0.214-3.613,0.589c-0.282-0.171-0.589-0.354-0.92-0.548V13.02z"/></g></g><text x="0" y="115" fill="#000000" font-size="5px" font-weight="bold" font-family="'Helvetica Neue', Helvetica, Arial-Unicode, Arial, Sans-serif">Created by Ann Artemova</text><text x="0" y="120" fill="#000000" font-size="5px" font-weight="bold" font-family="'Helvetica Neue', Helvetica, Arial-Unicode, Arial, Sans-serif">from the Noun Project</text></svg>